HIERARCHY
ROOT mixamorig:Hips
{
	OFFSET 0.000000 201.639420 0.000000
	CHANNELS 6 Xposition Yposition Zposition Xrotation Yrotation Zrotation
	JOINT mixamorig:Spine
	{
		OFFSET 0.006200 19.524994 -2.481800
		CHANNELS 3 Xrotation Yrotation Zrotation
		JOINT mixamorig:Spine1
		{
			OFFSET -0.000900 22.835007 -2.825400
			CHANNELS 3 Xrotation Yrotation Zrotation
			JOINT mixamorig:Spine2
			{
				OFFSET -0.020600 26.552490 -3.193300
				CHANNELS 3 Xrotation Yrotation Zrotation
				JOINT mixamorig:Neck
				{
					OFFSET -0.060000 30.701813 1.352200
					CHANNELS 3 Xrotation Yrotation Zrotation
					JOINT mixamorig:Head
					{
						OFFSET -0.087200 22.547607 3.670900
						CHANNELS 3 Xrotation Yrotation Zrotation
						JOINT mixamorig:HeadTop_End
						{
							OFFSET -0.830600 40.355194 7.893500
							CHANNELS 3 Xrotation Yrotation Zrotation
							End Site
							{
								OFFSET 0.000000 30.592346 0.000000
							}
						}
						JOINT mixamorig:RightEye
						{
							OFFSET -6.302100 18.118591 16.197100
							CHANNELS 3 Xrotation Yrotation Zrotation
							End Site
							{
								OFFSET 0.000000 30.592346 0.000000
							}
						}
						JOINT mixamorig:LeftEye
						{
							OFFSET 6.741500 18.382690 16.401899
							CHANNELS 3 Xrotation Yrotation Zrotation
							End Site
							{
								OFFSET 0.000000 30.592346 0.000000
							}
						}
					}
				}
				JOINT mixamorig:LeftShoulder
				{
					OFFSET 11.924900 18.230499 1.425400
					CHANNELS 3 Xrotation Yrotation Zrotation
					JOINT mixamorig:LeftArm
					{
						OFFSET 25.435989 -0.697632 -5.229300
						CHANNELS 3 Xrotation Yrotation Zrotation
						JOINT mixamorig:LeftForeArm
						{
							OFFSET 54.684776 0.000000 0.000000
							CHANNELS 3 Xrotation Yrotation Zrotation
							JOINT mixamorig:LeftHand
							{
								OFFSET 55.098175 0.000000 0.000000
								CHANNELS 3 Xrotation Yrotation Zrotation
								JOINT mixamorig:LeftHandMiddle1
								{
									OFFSET 23.369751 0.000000 0.000000
									CHANNELS 3 Xrotation Yrotation Zrotation
									JOINT mixamorig:LeftHandMiddle2
									{
										OFFSET 6.378677 0.000000 0.000000
										CHANNELS 3 Xrotation Yrotation Zrotation
										JOINT mixamorig:LeftHandMiddle3
										{
											OFFSET 6.148331 0.000000 0.000000
											CHANNELS 3 Xrotation Yrotation Zrotation
											JOINT mixamorig:LeftHandMiddle4
											{
												OFFSET 6.582504 0.000000 0.000000
												CHANNELS 3 Xrotation Yrotation Zrotation
												End Site
												{
													OFFSET -1.168900 6.395691 1.028606
												}
											}
										}
									}
								}
								JOINT mixamorig:LeftHandThumb1
								{
									OFFSET 7.235672 -3.848206 5.434273
									CHANNELS 3 Xrotation Yrotation Zrotation
									JOINT mixamorig:LeftHandThumb2
									{
										OFFSET 6.568451 -3.792297 3.792300
										CHANNELS 3 Xrotation Yrotation Zrotation
										JOINT mixamorig:LeftHandThumb3
										{
											OFFSET 6.063080 -3.500519 3.500518
											CHANNELS 3 Xrotation Yrotation Zrotation
											JOINT mixamorig:LeftHandThumb4
											{
												OFFSET 4.793182 -2.767334 2.767349
												CHANNELS 3 Xrotation Yrotation Zrotation
												End Site
												{
													OFFSET 0.101639 6.054260 1.275483
												}
											}
										}
									}
								}
								JOINT mixamorig:LeftHandIndex1
								{
									OFFSET 23.101074 -0.309540 4.992809
									CHANNELS 3 Xrotation Yrotation Zrotation
									JOINT mixamorig:LeftHandIndex2
									{
										OFFSET 6.226883 0.000000 0.000000
										CHANNELS 3 Xrotation Yrotation Zrotation
										JOINT mixamorig:LeftHandIndex3
										{
											OFFSET 6.094330 0.000000 0.000000
											CHANNELS 3 Xrotation Yrotation Zrotation
											JOINT mixamorig:LeftHandIndex4
											{
												OFFSET 5.482605 0.000000 0.000000
												CHANNELS 3 Xrotation Yrotation Zrotation
												End Site
												{
													OFFSET -1.427902 5.233032 0.797164
												}
											}
										}
									}
								}
								JOINT mixamorig:LeftHandRing1
								{
									OFFSET 22.299240 0.021149 -3.964172
									CHANNELS 3 Xrotation Yrotation Zrotation
									JOINT mixamorig:LeftHandRing2
									{
										OFFSET 6.321869 0.000000 0.000000
										CHANNELS 3 Xrotation Yrotation Zrotation
										JOINT mixamorig:LeftHandRing3
										{
											OFFSET 5.899796 0.000000 0.000000
											CHANNELS 3 Xrotation Yrotation Zrotation
											JOINT mixamorig:LeftHandRing4
											{
												OFFSET 6.517899 0.000000 0.000000
												CHANNELS 3 Xrotation Yrotation Zrotation
												End Site
												{
													OFFSET -1.637299 6.232208 0.980890
												}
											}
										}
									}
								}
								JOINT mixamorig:LeftHandPinky1
								{
									OFFSET 20.463791 -0.302338 -8.562233
									CHANNELS 3 Xrotation Yrotation Zrotation
									JOINT mixamorig:LeftHandPinky2
									{
										OFFSET 6.908646 0.000000 0.000000
										CHANNELS 3 Xrotation Yrotation Zrotation
										JOINT mixamorig:LeftHandPinky3
										{
											OFFSET 4.622849 0.000000 0.000000
											CHANNELS 3 Xrotation Yrotation Zrotation
											JOINT mixamorig:LeftHandPinky4
											{
												OFFSET 5.216080 0.000000 0.000000
												CHANNELS 3 Xrotation Yrotation Zrotation
												End Site
												{
													OFFSET -0.606308 5.116241 0.814926
												}
											}
										}
									}
								}
							}
						}
					}
				}
				JOINT mixamorig:RightShoulder
				{
					OFFSET -12.001300 18.284088 1.348900
					CHANNELS 3 Xrotation Yrotation Zrotation
					JOINT mixamorig:RightArm
					{
						OFFSET -25.308500 -0.751312 -5.164599
						CHANNELS 3 Xrotation Yrotation Zrotation
						JOINT mixamorig:RightForeArm
						{
							OFFSET -54.684429 0.000000 0.000000
							CHANNELS 3 Xrotation Yrotation Zrotation
							JOINT mixamorig:RightHand
							{
								OFFSET -55.150291 0.000000 0.000000
								CHANNELS 3 Xrotation Yrotation Zrotation
								JOINT mixamorig:RightHandMiddle1
								{
									OFFSET -23.317566 0.000000 0.000000
									CHANNELS 3 Xrotation Yrotation Zrotation
									JOINT mixamorig:RightHandMiddle2
									{
										OFFSET -6.378403 0.000000 0.000000
										CHANNELS 3 Xrotation Yrotation Zrotation
										JOINT mixamorig:RightHandMiddle3
										{
											OFFSET -6.148193 0.000000 0.000000
											CHANNELS 3 Xrotation Yrotation Zrotation
											JOINT mixamorig:RightHandMiddle4
											{
												OFFSET -6.583389 0.000000 0.000000
												CHANNELS 3 Xrotation Yrotation Zrotation
												End Site
												{
													OFFSET 1.171692 6.395905 1.029786
												}
											}
										}
									}
								}
								JOINT mixamorig:RightHandThumb1
								{
									OFFSET -7.190521 -3.860474 5.435846
									CHANNELS 3 Xrotation Yrotation Zrotation
									JOINT mixamorig:RightHandThumb2
									{
										OFFSET -6.567429 -3.791718 3.791708
										CHANNELS 3 Xrotation Yrotation Zrotation
										JOINT mixamorig:RightHandThumb3
										{
											OFFSET -6.062469 -3.500153 3.500166
											CHANNELS 3 Xrotation Yrotation Zrotation
											JOINT mixamorig:RightHandThumb4
											{
												OFFSET -4.792618 -2.767029 2.767022
												CHANNELS 3 Xrotation Yrotation Zrotation
												End Site
												{
													OFFSET -0.100327 6.053253 1.276754
												}
											}
										}
									}
								}
								JOINT mixamorig:RightHandIndex1
								{
									OFFSET -23.048981 -0.310791 4.992554
									CHANNELS 3 Xrotation Yrotation Zrotation
									JOINT mixamorig:RightHandIndex2
									{
										OFFSET -6.227539 0.000000 0.000000
										CHANNELS 3 Xrotation Yrotation Zrotation
										JOINT mixamorig:RightHandIndex3
										{
											OFFSET -6.095047 0.000000 0.000000
											CHANNELS 3 Xrotation Yrotation Zrotation
											JOINT mixamorig:RightHandIndex4
											{
												OFFSET -5.484772 0.000000 0.000000
												CHANNELS 3 Xrotation Yrotation Zrotation
												End Site
												{
													OFFSET 1.420593 5.237305 0.797056
												}
											}
										}
									}
								}
								JOINT mixamorig:RightHandRing1
								{
									OFFSET -22.246323 0.020569 -3.963762
									CHANNELS 3 Xrotation Yrotation Zrotation
									JOINT mixamorig:RightHandRing2
									{
										OFFSET -6.322128 0.000000 0.000000
										CHANNELS 3 Xrotation Yrotation Zrotation
										JOINT mixamorig:RightHandRing3
										{
											OFFSET -5.900024 0.000000 0.000000
											CHANNELS 3 Xrotation Yrotation Zrotation
											JOINT mixamorig:RightHandRing4
											{
												OFFSET -6.518356 0.000000 0.000000
												CHANNELS 3 Xrotation Yrotation Zrotation
												End Site
												{
													OFFSET 1.636398 6.232697 0.982186
												}
											}
										}
									}
								}
								JOINT mixamorig:RightHandPinky1
								{
									OFFSET -20.411011 -0.303314 -8.561701
									CHANNELS 3 Xrotation Yrotation Zrotation
									JOINT mixamorig:RightHandPinky2
									{
										OFFSET -6.907349 0.000000 0.000000
										CHANNELS 3 Xrotation Yrotation Zrotation
										JOINT mixamorig:RightHandPinky3
										{
											OFFSET -4.623840 0.000000 0.000000
											CHANNELS 3 Xrotation Yrotation Zrotation
											JOINT mixamorig:RightHandPinky4
											{
												OFFSET -5.218353 0.000000 0.000000
												CHANNELS 3 Xrotation Yrotation Zrotation
												End Site
												{
													OFFSET 0.602097 5.118835 0.816273
												}
											}
										}
									}
								}
							}
						}
					}
				}
			}
		}
	}
	JOINT mixamorig:LeftUpLeg
	{
		OFFSET 18.168400 -13.561905 -0.039000
		CHANNELS 3 Xrotation Yrotation Zrotation
		JOINT mixamorig:LeftLeg
		{
			OFFSET 0.577358 -80.825211 -3.695000
			CHANNELS 3 Xrotation Yrotation Zrotation
			JOINT mixamorig:LeftFoot
			{
				OFFSET -0.577356 -83.370262 -6.520700
				CHANNELS 3 Xrotation Yrotation Zrotation
				JOINT mixamorig:LeftToeBase
				{
					OFFSET 0.750401 -20.798306 25.135401
					CHANNELS 3 Xrotation Yrotation Zrotation
					JOINT mixamorig:LeftToe_End
					{
						OFFSET -0.000500 0.001200 19.917799
						CHANNELS 3 Xrotation Yrotation Zrotation
						End Site
						{
							OFFSET 0.000000 19.917805 0.000000
						}
					}
				}
			}
		}
	}
	JOINT mixamorig:RightUpLeg
	{
		OFFSET -18.162500 -13.585098 -0.041000
		CHANNELS 3 Xrotation Yrotation Zrotation
		JOINT mixamorig:RightLeg
		{
			OFFSET -0.595024 -80.945297 -3.631900
			CHANNELS 3 Xrotation Yrotation Zrotation
			JOINT mixamorig:RightFoot
			{
				OFFSET 0.595024 -83.218193 -6.561200
				CHANNELS 3 Xrotation Yrotation Zrotation
				JOINT mixamorig:RightToeBase
				{
					OFFSET -0.753601 -20.807106 25.115000
					CHANNELS 3 Xrotation Yrotation Zrotation
					JOINT mixamorig:RightToe_End
					{
						OFFSET 0.000299 0.001700 19.918200
						CHANNELS 3 Xrotation Yrotation Zrotation
						End Site
						{
							OFFSET 0.000000 19.918203 0.000000
						}
					}
				}
			}
		}
	}
}
MOTION
Frames: 4
Frame Time: 0.033333
0.863033 174.298325 2.676657 -12.851395 -45.468825 -9.537945 22.110367 2.816648 -1.856901 0.594512 0.503837 -1.275422 0.601461 0.453182 -1.290674 13.059855 3.675929 -3.647118 -3.731726 21.817735 -7.819094 -0.000000 -0.000001 0.000000 -0.000000 -0.000001 0.000000 -0.000000 -0.000001 0.000000 3.129893 -8.122400 0.492268 -55.333405 4.420395 -46.448394 0.000117 -109.349614 0.000115 -6.031624 -6.034092 7.897565 6.935545 6.880940 -90.462973 6.298606 6.856601 -85.131669 1.089153 3.721596 -32.615021 0.000002 -0.000003 -0.000003 -18.501557 -1.990874 -0.678533 6.588889 37.414759 6.072777 3.250120 39.318008 0.212303 0.000001 -0.000000 0.000002 7.135890 6.876823 -91.919559 4.411273 6.424635 -68.918890 0.467899 2.499306 -21.204025 -0.000001 -0.000001 0.000000 8.006507 6.788596 -99.518616 5.166199 6.665063 -75.534707 1.651789 4.478819 -40.471524 -0.000000 -0.000001 0.000002 10.565790 7.100518 -86.735486 5.980826 2.735981 -82.489212 0.964256 3.519206 -30.637363 0.000000 0.000002 -0.000000 9.038018 25.692453 0.926414 -61.263484 25.539416 70.311702 -0.000137 108.923287 0.000159 5.551612 1.405824 -2.396151 6.187337 -6.944296 89.790787 7.153826 -6.945222 91.699695 1.449318 -4.268968 37.712166 0.000004 -0.000000 -0.000000 7.553837 -6.295641 -7.169621 -1.771002 -19.356042 -1.111423 3.393205 -26.350668 -10.258224 -0.000002 0.000001 0.000001 2.275988 -6.284210 81.352402 5.974509 -6.879962 81.924779 1.045299 -3.671662 31.773255 -0.000003 0.000001 0.000002 7.669852 -6.911895 97.134197 6.931948 -6.948216 89.865386 1.460128 -4.276914 37.818443 -0.000003 -0.000004 0.000003 9.199309 -6.633954 100.406369 7.486460 -6.927466 94.453627 2.120994 -5.003493 45.922818 -0.000002 -0.000002 0.000001 -35.001878 8.567496 23.588193 62.505008 3.437691 -1.278346 -15.836837 1.227717 -7.052594 -1.821713 0.000637 -0.263373 0.000000 0.000001 -0.000000 -18.154716 -6.994501 -18.896792 55.758782 7.301427 -8.281747 -29.037351 -3.976783 14.724921 -1.037485 0.000033 0.000002 -0.000000 0.000001 0.000000 
0.461132 174.304977 2.090172 -13.156083 -45.226979 -9.611359 22.116257 2.753884 -1.726433 0.648813 0.491093 -1.271290 0.655624 0.440548 -1.285914 12.995949 3.633694 -3.644258 -4.069039 21.620863 -7.807021 0.000001 -0.000001 -0.000000 0.000001 -0.000001 -0.000000 0.000001 -0.000001 -0.000000 3.083944 -7.959008 0.327669 -54.647418 4.347339 -46.498767 0.000096 -109.453160 0.000104 -5.860798 -6.168884 7.867244 6.932713 6.880949 -90.439389 6.299628 6.856689 -85.140309 1.090074 3.723031 -32.629221 0.000001 -0.000003 0.000002 -18.533215 -2.001259 -0.663837 6.639562 37.399534 6.020165 3.283685 39.282863 0.166521 0.000003 -0.000000 -0.000001 7.135187 6.876850 -91.913719 4.408730 6.423649 -68.896077 0.468176 2.500036 -21.210517 0.000001 -0.000002 -0.000002 8.005382 6.788777 -99.509176 5.169295 6.665839 -75.561365 1.653212 4.480497 -40.489870 0.000000 -0.000002 0.000008 10.571201 7.097708 -86.779247 5.977877 2.735587 -82.464494 0.963260 3.517527 -30.621101 -0.000003 -0.000000 -0.000002 9.061089 25.518365 0.515800 -61.484052 25.118147 70.224248 -0.000058 109.234396 0.000040 5.183683 1.274268 -2.234793 6.223452 -6.945359 89.832308 7.130750 -6.945850 91.508955 1.450398 -4.270709 37.728858 0.000002 -0.000001 0.000000 7.367448 -6.282300 -7.171167 -1.771012 -19.356044 -1.111435 3.329045 -26.413617 -10.311995 -0.000002 -0.000003 -0.000003 2.396955 -6.314382 81.489764 5.984764 -6.881402 82.010238 1.031321 -3.649032 31.554221 -0.000003 -0.000003 -0.000000 7.670594 -6.911920 97.170499 6.912992 -6.948148 89.708586 1.446530 -4.260239 37.641261 -0.000001 -0.000003 0.000003 9.309107 -6.610114 100.797097 7.482274 -6.927778 94.418855 2.119806 -5.002333 45.909246 -0.000001 0.000001 -0.000000 -34.746590 8.587686 23.666848 62.192875 3.073891 -1.211985 -15.526529 1.246442 -7.236305 -1.798604 0.001047 -0.336627 0.000000 0.000001 -0.000000 -18.005668 -7.229650 -18.916337 55.997562 7.293419 -8.268189 -29.238718 -3.941329 14.586555 -0.947139 0.000028 -0.000003 -0.000000 0.000002 -0.000000 
-0.076593 174.772354 1.365902 -13.214167 -44.987181 -9.630889 21.900914 2.749146 -1.574202 0.662776 0.484557 -1.259964 0.669525 0.434831 -1.274184 12.965560 3.582573 -3.588733 -4.185077 21.361992 -7.747638 0.000002 0.000001 0.000000 0.000002 0.000001 0.000000 0.000002 0.000001 0.000000 3.061514 -7.870794 0.312635 -54.453304 4.247724 -46.381301 -0.000112 -109.413538 -0.000125 -5.896849 -6.119558 7.759249 6.932241 6.880964 -90.435454 6.299367 6.856665 -85.138103 1.090707 3.724021 -32.639029 -0.000000 -0.000000 0.000002 -18.543938 -1.990299 -0.615355 6.595298 37.418874 6.066013 3.309377 39.261010 0.132130 0.000001 -0.000000 0.000001 7.138360 6.876734 -91.940227 4.406377 6.422747 -68.875074 0.468103 2.499844 -21.208808 -0.000000 0.000002 -0.000002 8.005335 6.788791 -99.508698 5.172439 6.666650 -75.588501 1.654122 4.481540 -40.501369 -0.000001 0.000001 -0.000000 10.580054 7.093125 -86.850848 5.972793 2.734916 -82.421710 0.961606 3.514720 -30.594084 0.000002 0.000000 0.000001 9.104750 25.401443 0.109698 -61.889676 24.666118 70.077475 -0.000050 109.635970 0.000058 4.984888 1.089804 -2.349996 6.245658 -6.945192 89.788253 7.110968 -6.946344 91.345304 1.450027 -4.268937 37.715734 0.000004 0.000001 0.000003 7.178583 -6.365634 -7.238309 -1.770785 -19.355966 -1.111184 3.347631 -26.397650 -10.296495 0.000004 -0.000002 0.000001 2.471269 -6.328398 81.515951 5.983474 -6.881226 81.999522 1.024056 -3.637215 31.440013 -0.000000 0.000000 0.000003 7.676859 -6.911116 97.128446 6.892192 -6.948006 89.536677 1.440112 -4.249993 37.542323 -0.000001 -0.000002 0.000004 9.395572 -6.595173 100.808640 7.472974 -6.928490 94.341865 2.112760 -4.995533 45.828428 0.000000 -0.000001 0.000001 -34.412621 8.605562 23.738990 61.299227 2.877088 -1.046669 -14.905455 1.249528 -7.443685 -1.820519 0.000823 -0.301248 -0.000000 -0.000000 -0.000000 -17.709441 -7.514604 -18.612523 55.663801 7.173850 -8.195681 -29.092429 -3.907986 14.396411 -0.913686 -0.000001 -0.000007 -0.000000 -0.000001 -0.000000 
-0.730940 175.727478 0.480785 -12.944685 -44.751884 -9.535683 21.388971 2.814310 -1.425771 0.644216 0.484809 -1.221508 0.650895 0.437534 -1.235491 12.977024 3.516433 -3.477655 -4.051951 21.009717 -7.643958 0.000000 0.000000 -0.000000 0.000000 0.000000 -0.000000 0.000000 0.000000 -0.000000 3.073786 -7.905924 0.440686 -54.836601 4.090383 -46.076176 0.000157 -109.195860 0.000134 -6.081958 -5.917459 7.598608 6.934398 6.880933 -90.453390 6.297943 6.856548 -85.126260 1.090921 3.724360 -32.642283 0.000001 -0.000001 0.000003 -18.524516 -1.961180 -0.531008 6.476600 37.465449 6.189023 3.325801 39.252916 0.110340 0.000000 0.000001 -0.000001 7.145435 6.876458 -91.999308 4.403958 6.421819 -68.853429 0.467466 2.498192 -21.194130 -0.000000 -0.000001 0.000001 8.006419 6.788601 -99.517892 5.175648 6.667475 -75.616191 1.654237 4.481671 -40.502783 -0.000003 0.000001 0.000003 10.591833 7.087004 -86.946020 5.966397 2.734061 -82.368093 0.959957 3.511951 -30.567214 0.000000 -0.000002 -0.000001 9.151321 25.285994 -0.287454 -62.439008 24.233405 69.920100 -0.000030 110.088531 0.000020 4.913976 0.753648 -2.577262 6.258782 -6.943417 89.610818 7.092476 -6.946745 91.192355 1.449357 -4.264601 37.684032 0.000002 0.000002 0.000002 6.977071 -6.557182 -7.379595 -1.770251 -19.355820 -1.110625 3.447600 -26.305592 -10.213686 0.000000 0.000002 0.000002 2.502928 -6.325851 81.408915 5.969955 -6.879314 81.886585 1.023533 -3.636344 31.431554 -0.000000 -0.000003 -0.000005 7.692316 -6.909134 96.975839 6.867317 -6.947770 89.330992 1.440733 -4.244663 37.511030 -0.000000 0.000003 -0.000000 9.467048 -6.590062 100.445302 7.456045 -6.929749 94.201382 2.099213 -4.982370 45.672669 -0.000002 -0.000002 -0.000000 -34.026018 8.614625 23.792059 59.736233 2.843223 -0.786092 -13.873844 1.250184 -7.797351 -1.890238 0.000445 -0.220109 0.000000 -0.000002 -0.000000 -17.343901 -7.854570 -18.062799 54.732812 7.005408 -7.954451 -28.550566 -3.843254 14.089172 -0.960146 0.000011 -0.000002 -0.000000 -0.000001 -0.000000 
